<svg width="24" height="24" viewBox="0 0 24 24" fill="none" xmlns="http://www.w3.org/2000/svg">
    <path d="M9.70833 15.3458H14.2917V13.9708H11.725L14.2917 11.0833V9.84583H9.70833V11.2208H12.3208L9.70833 14.1542V15.3458ZM12 21.1667C10.8542 21.1667 9.7809 20.949 8.78021 20.5135C7.77951 20.0781 6.90868 19.4899 6.16771 18.749C5.42674 18.008 4.83854 17.1372 4.40313 16.1365C3.96771 15.1358 3.75 14.0625 3.75 12.9167C3.75 11.7708 3.96771 10.6976 4.40313 9.69688C4.83854 8.69618 5.42674 7.82535 6.16771 7.08437C6.90868 6.3434 7.77951 5.75521 8.78021 5.31979C9.7809 4.88437 10.8542 4.66667 12 4.66667C13.1458 4.66667 14.2191 4.88437 15.2198 5.31979C16.2205 5.75521 17.0913 6.3434 17.8323 7.08437C18.5733 7.82535 19.1615 8.69618 19.5969 9.69688C20.0323 10.6976 20.25 11.7708 20.25 12.9167C20.25 14.0625 20.0323 15.1358 19.5969 16.1365C19.1615 17.1372 18.5733 18.008 17.8323 18.749C17.0913 19.4899 16.2205 20.0781 15.2198 20.5135C14.2191 20.949 13.1458 21.1667 12 21.1667ZM6.13333 3.15417L7.41667 4.4375L3.52083 8.33333L2.2375 7.05L6.13333 3.15417ZM17.8667 3.15417L21.7625 7.05L20.4792 8.33333L16.5833 4.4375L17.8667 3.15417ZM12 19.3333C13.7875 19.3333 15.3038 18.7108 16.549 17.4656C17.7941 16.2205 18.4167 14.7042 18.4167 12.9167C18.4167 11.1292 17.7941 9.61285 16.549 8.36771C15.3038 7.12257 13.7875 6.5 12 6.5C10.2125 6.5 8.69618 7.12257 7.45104 8.36771C6.2059 9.61285 5.58333 11.1292 5.58333 12.9167C5.58333 14.7042 6.2059 16.2205 7.45104 17.4656C8.69618 18.7108 10.2125 19.3333 12 19.3333Z" fill="#404040"/>
</svg>
