<svg width="24" height="24" viewBox="0 0 24 24" fill="none" xmlns="http://www.w3.org/2000/svg">
    <path fill-rule="evenodd" clip-rule="evenodd" d="M16.9743 9.80499H15.1966C14.8857 6.93319 12.4534 4.69765 9.49891 4.69765C6.33363 4.69765 3.76766 7.26362 3.76766 10.4289C3.76766 13.5942 6.33363 16.1602 9.49891 16.1602C9.92863 16.1602 10.3473 16.1129 10.75 16.0232V17.8263C10.3435 17.8945 9.92589 17.93 9.5 17.93C5.35786 17.93 2 14.5721 2 10.43C2 6.28786 5.35786 2.92999 9.5 2.92999C13.4317 2.92999 16.6567 5.95529 16.9743 9.80499Z" fill="#404040"/>
    <path d="M10.7725 6.92499H9.20125V10.8537H10.7725V6.92499Z" fill="#404040"/>
    <path fill-rule="evenodd" clip-rule="evenodd" d="M9.67 9.72374L10.7812 10.835L8.00375 13.6125L6.8925 12.5025L9.67 9.72374Z" fill="#404040"/>
    <path fill-rule="evenodd" clip-rule="evenodd" d="M19.5 21.055V18.555H14.5V21.055H12V11.055H22V21.055H19.5ZM13.875 12.93V16.055H20.125V12.93H13.875ZM15.75 19.805H18.25V21.055H15.75V19.805Z" fill="#404040"/>
</svg>