<svg width="24" height="24" viewBox="0 0 24 24" fill="none" xmlns="http://www.w3.org/2000/svg">
<path fill-rule="evenodd" clip-rule="evenodd" d="M16.9743 9.8125H15.1966C14.8857 6.9407 12.4534 4.70516 9.49891 4.70516C6.33363 4.70516 3.76766 7.27113 3.76766 10.4364C3.76766 13.6017 6.33363 16.1677 9.49891 16.1677C9.92863 16.1677 10.3473 16.1204 10.75 16.0307V17.8338C10.3435 17.902 9.92589 17.9375 9.5 17.9375C5.35786 17.9375 2 14.5796 2 10.4375C2 6.29536 5.35786 2.9375 9.5 2.9375C13.4317 2.9375 16.6567 5.96279 16.9743 9.8125Z" fill="#1C1B1F"/>
<path d="M10.7725 6.9325H9.20126V10.8613H10.7725V6.9325Z" fill="#1C1B1F"/>
<path fill-rule="evenodd" clip-rule="evenodd" d="M9.66999 9.73125L10.7812 10.8425L8.00374 13.62L6.89249 12.51L9.66999 9.73125Z" fill="#1C1B1F"/>
<path fill-rule="evenodd" clip-rule="evenodd" d="M19.5 21.0625V18.5625H14.5V21.0625H12V11.0625H22V21.0625H19.5ZM13.875 12.9375V16.0625H20.125V12.9375H13.875ZM15.75 19.8125H18.25V21.0625H15.75V19.8125Z" fill="#1C1B1F"/>
</svg>
