<svg width="24" height="24" viewBox="0 0 24 24" fill="none" xmlns="http://www.w3.org/2000/svg">
<path fill-rule="evenodd" clip-rule="evenodd" d="M20 12C20 16.4183 16.4183 20 12 20C7.58172 20 4 16.4183 4 12C4 7.58172 7.58172 4 12 4C16.4183 4 20 7.58172 20 12ZM12.816 18.7471C16.1794 18.6462 18.875 15.8879 18.875 12.5C18.875 12.0858 18.5392 11.75 18.125 11.75C17.7108 11.75 17.375 12.0858 17.375 12.5C17.375 15.0816 15.3156 17.1821 12.75 17.2484V17.25C12.3358 17.25 12 17.5858 12 18C12 18.4142 12.3358 18.75 12.75 18.75C12.7722 18.75 12.7942 18.749 12.816 18.7471ZM12.6327 6.21834L11.875 4.75L11.1173 6.21834H8.66518L10.649 7.12582L9.89122 8.59416L11.875 7.68668L13.8588 8.59416L13.101 7.12582L15.0848 6.21834H12.6327Z" fill="#1C1B1F"/>
</svg>
