<svg width="24" height="24" viewBox="0 0 24 24" fill="none" xmlns="http://www.w3.org/2000/svg">
    <path d="M12.0458 19.3333C9.99861 19.3333 8.25694 18.6229 6.82083 17.2021C5.38472 15.7812 4.66667 14.0472 4.66667 12V11.8396L3.2 13.3063L1.91667 12.0229L5.58333 8.35625L9.25 12.0229L7.96667 13.3063L6.5 11.8396V12C6.5 13.5278 7.03854 14.8264 8.11563 15.8958C9.19271 16.9653 10.5028 17.5 12.0458 17.5C12.4431 17.5 12.8326 17.4542 13.2146 17.3625C13.5965 17.2708 13.9708 17.1333 14.3375 16.95L15.7125 18.325C15.1319 18.6611 14.5361 18.9132 13.925 19.0813C13.3139 19.2493 12.6875 19.3333 12.0458 19.3333ZM18.4167 15.6438L14.75 11.9771L16.0333 10.6938L17.5 12.1604V12C17.5 10.4722 16.9615 9.17361 15.8844 8.10417C14.8073 7.03472 13.4972 6.5 11.9542 6.5C11.5569 6.5 11.1674 6.54583 10.7854 6.6375C10.4035 6.72917 10.0292 6.86667 9.6625 7.05L8.2875 5.675C8.86806 5.33889 9.46389 5.08681 10.075 4.91875C10.6861 4.75069 11.3125 4.66667 11.9542 4.66667C14.0014 4.66667 15.7431 5.37708 17.1792 6.79792C18.6153 8.21875 19.3333 9.95278 19.3333 12V12.1604L20.8 10.6938L22.0833 11.9771L18.4167 15.6438Z" fill="#404040"/>
</svg>