<svg width="24" height="24" viewBox="0 0 24 24" fill="none" xmlns="http://www.w3.org/2000/svg">
    <path fill-rule="evenodd" clip-rule="evenodd" d="M21.514 15.0788L19.2398 13.4472C19.3329 12.9792 19.3816 12.4953 19.3816 12C19.3816 11.5046 19.3329 11.0207 19.2398 10.5527L21.514 8.92115C21.0763 7.56736 20.3578 6.33987 19.4272 5.30735L16.8772 6.45767C16.1515 5.81816 15.2993 5.31896 14.3628 5.00245L14.085 2.21834C13.4115 2.07527 12.7129 2 11.9968 2C11.2812 2 10.5831 2.07517 9.91008 2.21804L9.63224 5.00211C8.69552 5.31853 7.84299 5.81776 7.11708 6.45736L4.56686 5.30691C3.63624 6.33933 2.91774 7.56669 2.48001 8.92033L4.75426 10.5521C4.66119 11.0203 4.61237 11.5044 4.61237 12C4.61237 12.4955 4.66119 12.9797 4.75426 13.4479L2.47998 15.0796C2.9177 16.4332 3.63619 17.6606 4.56681 18.693L7.11706 17.5425C7.84295 18.1822 8.6955 18.6814 9.63224 18.9978L9.9101 21.782C10.5831 21.9249 11.2812 22 11.9968 22C12.7129 22 13.4115 21.9247 14.0849 21.7816L14.3628 18.9975C15.2993 18.681 16.1516 18.1818 16.8773 17.5422L19.4272 18.6926C20.3578 17.6601 21.0763 16.4326 21.514 15.0788ZM15.5353 12.0004C15.5353 13.9548 13.9511 15.5391 11.9969 15.5391C10.0426 15.5391 8.45841 13.9548 8.45841 12.0004C8.45841 10.0459 10.0426 8.46158 11.9969 8.46158C13.9511 8.46158 15.5353 10.0459 15.5353 12.0004Z" fill="#404040"/>
</svg>
