<svg width="33" height="33" viewBox="0 0 33 33" fill="none" xmlns="http://www.w3.org/2000/svg">
<mask id="mask0_3_19" style="mask-type:alpha" maskUnits="userSpaceOnUse" x="0" y="0" width="33" height="33">
<rect x="0.397552" y="0.0835266" width="32" height="32" fill="#D9D9D9"/>
</mask>
<g mask="url(#mask0_3_19)">
<path d="M20.6642 14.6835L14.4642 8.48352C14.7753 8.35019 15.0918 8.25019 15.4135 8.18352C15.7362 8.11686 16.0642 8.08352 16.3975 8.08352C17.7087 8.08352 18.8144 8.5333 19.7149 9.43286C20.6144 10.3333 21.0642 11.4391 21.0642 12.7502C21.0642 13.0835 21.0309 13.4115 20.9642 13.7342C20.8975 14.056 20.7975 14.3724 20.6642 14.6835ZM8.19754 22.8835C9.33088 22.0169 10.5975 21.3333 11.9975 20.8329C13.3975 20.3333 14.8642 20.0835 16.3975 20.0835C16.7975 20.0835 17.1811 20.1 17.5482 20.1329C17.9144 20.1666 18.2975 20.2169 18.6975 20.2835L15.7642 17.3502C14.7198 17.2169 13.8255 16.7777 13.0815 16.0329C12.3367 15.2889 11.8975 14.3946 11.7642 13.3502L7.96421 9.55019C7.2531 10.4613 6.70332 11.4671 6.31488 12.5675C5.92554 13.6671 5.73088 14.8391 5.73088 16.0835C5.73088 17.3946 5.94776 18.628 6.38154 19.7835C6.81443 20.9391 7.41976 21.9724 8.19754 22.8835ZM24.7975 22.6169C25.5087 21.7057 26.0642 20.7 26.4642 19.5995C26.8642 18.5 27.0642 17.328 27.0642 16.0835C27.0642 13.128 26.0255 10.6111 23.9482 8.53286C21.87 6.45552 19.3531 5.41686 16.3975 5.41686C15.1531 5.41686 13.9811 5.61686 12.8815 6.01686C11.7811 6.41686 10.7753 6.97241 9.86421 7.68352L24.7975 22.6169ZM16.3975 29.4169C14.5753 29.4169 12.8531 29.0666 11.2309 28.3662C9.60865 27.6666 8.19221 26.7111 6.98154 25.4995C5.76999 24.2889 4.81443 22.8724 4.11488 21.2502C3.41443 19.628 3.06421 17.9057 3.06421 16.0835C3.06421 14.2391 3.41443 12.5115 4.11488 10.9009C4.81443 9.2893 5.76999 7.87819 6.98154 6.66752C8.19221 5.45597 9.60865 4.49997 11.2309 3.79952C12.8531 3.09997 14.5753 2.75019 16.3975 2.75019C18.242 2.75019 19.9695 3.09997 21.5802 3.79952C23.1918 4.49997 24.6029 5.45597 25.8135 6.66752C27.0251 7.87819 27.9807 9.2893 28.6802 10.9009C29.3807 12.5115 29.7309 14.2391 29.7309 16.0835C29.7309 17.9057 29.3807 19.628 28.6802 21.2502C27.9807 22.8724 27.0251 24.2889 25.8135 25.4995C24.6029 26.7111 23.1918 27.6666 21.5802 28.3662C19.9695 29.0666 18.242 29.4169 16.3975 29.4169ZM16.3975 26.7502C17.5753 26.7502 18.6864 26.5782 19.7309 26.2342C20.7753 25.8893 21.7309 25.3946 22.5975 24.7502C21.7309 24.1057 20.7753 23.6111 19.7309 23.2662C18.6864 22.9222 17.5753 22.7502 16.3975 22.7502C15.2198 22.7502 14.1087 22.9222 13.0642 23.2662C12.0198 23.6111 11.0642 24.1057 10.1975 24.7502C11.0642 25.3946 12.0198 25.8893 13.0642 26.2342C14.1087 26.5782 15.2198 26.7502 16.3975 26.7502Z" fill="#1C1B1F"/>
</g>
</svg>
