<svg width="24" height="24" viewBox="0 0 24 24" fill="none" xmlns="http://www.w3.org/2000/svg">
    <path d="M12 18C11.0667 18 10.175 18.146 9.325 18.438C8.475 18.7293 7.7 19.1667 7 19.75V20H17V19.75C16.3 19.1667 15.525 18.7293 14.675 18.438C13.825 18.146 12.9333 18 12 18ZM5 18.85C5.9 17.9667 6.946 17.2707 8.138 16.762C9.32933 16.254 10.6167 16 12 16C13.3833 16 14.671 16.254 15.863 16.762C17.0543 17.2707 18.1 17.9667 19 18.85V6H5V18.85ZM12 14C11.0333 14 10.2083 13.6583 9.525 12.975C8.84167 12.2917 8.5 11.4667 8.5 10.5C8.5 9.53333 8.84167 8.70833 9.525 8.025C10.2083 7.34167 11.0333 7 12 7C12.9667 7 13.7917 7.34167 14.475 8.025C15.1583 8.70833 15.5 9.53333 15.5 10.5C15.5 11.4667 15.1583 12.2917 14.475 12.975C13.7917 13.6583 12.9667 14 12 14ZM12 12C12.4167 12 12.7707 11.854 13.062 11.562C13.354 11.2707 13.5 10.9167 13.5 10.5C13.5 10.0833 13.354 9.72933 13.062 9.438C12.7707 9.146 12.4167 9 12 9C11.5833 9 11.2293 9.146 10.938 9.438C10.646 9.72933 10.5 10.0833 10.5 10.5C10.5 10.9167 10.646 11.2707 10.938 11.562C11.2293 11.854 11.5833 12 12 12ZM5 22C4.45 22 3.979 21.8043 3.587 21.413C3.19567 21.021 3 20.55 3 20V6C3 5.45 3.19567 4.97933 3.587 4.588C3.979 4.196 4.45 4 5 4H6V2H8V4H16V2H18V4H19C19.55 4 20.021 4.196 20.413 4.588C20.8043 4.97933 21 5.45 21 6V20C21 20.55 20.8043 21.021 20.413 21.413C20.021 21.8043 19.55 22 19 22H5ZM12 20C12.9333 20 13.825 20 14.675 20C15.525 20 16.3 20 17 20H7C7.7 20 8.475 20 9.325 20C10.175 20 11.0667 20 12 20Z" fill="#404040"/>
</svg>
