<svg width="24" height="24" viewBox="0 0 24 24" fill="none" xmlns="http://www.w3.org/2000/svg">
<mask id="mask0_69_71" style="mask-type:alpha" maskUnits="userSpaceOnUse" x="0" y="0" width="24" height="24">
<rect width="24" height="24" fill="#D9D9D9"/>
</mask>
<g mask="url(#mask0_69_71)">
<path d="M4 17H20V7H4V17ZM4 19C3.45 19 2.97933 18.8043 2.588 18.413C2.196 18.021 2 17.55 2 17V7C2 6.45 2.196 5.97933 2.588 5.588C2.97933 5.196 3.45 5 4 5H20C20.55 5 21.021 5.196 21.413 5.588C21.8043 5.97933 22 6.45 22 7V17C22 17.55 21.8043 18.021 21.413 18.413C21.021 18.8043 20.55 19 20 19H4ZM11 10H13V8H11V10ZM11 13H13V11H11V13ZM8 10H10V8H8V10ZM8 13H10V11H8V13ZM5 13H7V11H5V13ZM5 10H7V8H5V10ZM8 16H16V14H8V16ZM14 13H16V11H14V13ZM14 10H16V8H14V10ZM17 13H19V11H17V13ZM17 10H19V8H17V10Z" fill="#1C1B1F"/>
</g>
</svg>
