<svg width="127" height="48" viewBox="0 0 127 48" fill="none" xmlns="http://www.w3.org/2000/svg">
<path d="M56.2324 23.6186C56.4077 23.303 56.6619 23.0926 56.9951 22.9874C57.3282 22.8822 57.7403 22.8296 58.2313 22.8296C58.7398 22.8296 59.143 22.8734 59.4411 22.9611C59.7567 23.0488 59.9847 23.154 60.125 23.2767C60.2828 23.3994 60.3967 23.5836 60.4669 23.829C60.5721 24.1096 60.6247 24.5567 60.6247 25.1704V39.7677C60.6247 40.1885 60.6072 40.4953 60.5721 40.6882C60.5545 40.8811 60.4756 41.109 60.3354 41.372C60.0899 41.8455 59.4061 42.0822 58.2839 42.0822C57.6 42.0822 57.1266 42.0296 56.8636 41.9244C56.6006 41.8192 56.3814 41.6526 56.2061 41.4246C52.2609 36.1644 49.6658 32.7277 48.4209 31.1145V39.7677C48.4209 40.1885 48.4033 40.4953 48.3682 40.6882C48.3507 40.8811 48.2718 41.109 48.1315 41.372C47.8861 41.8455 47.2022 42.0822 46.08 42.0822C44.9929 42.0822 44.3266 41.8455 44.0811 41.372C43.9409 41.109 43.8532 40.8723 43.8181 40.6619C43.8006 40.4515 43.7918 40.1446 43.7918 39.7414V25.0652C43.7918 24.3989 43.8707 23.9167 44.0285 23.6186C44.2039 23.303 44.4581 23.0926 44.7913 22.9874C45.1244 22.8822 45.554 22.8296 46.08 22.8296C46.6061 22.8296 47.0181 22.8822 47.3162 22.9874C47.6318 23.0751 47.851 23.1803 47.9737 23.303C48.0439 23.3556 48.2455 23.5836 48.5787 23.9868C52.2784 29.0192 54.7507 32.3419 55.9956 33.9551V25.0652C55.9956 24.3989 56.0745 23.9167 56.2324 23.6186Z" fill="#404040"/>
<path d="M63.9841 22.777H78.6076C79.1687 22.777 79.5808 22.8471 79.8438 22.9874C80.1068 23.1101 80.2822 23.3118 80.3698 23.5923C80.4575 23.8729 80.5013 24.2411 80.5013 24.697C80.5013 25.1529 80.4575 25.5211 80.3698 25.8016C80.2822 26.0646 80.1331 26.2488 79.9227 26.354C79.6071 26.5118 79.16 26.5907 78.5813 26.5907H73.5578V39.8203C73.5578 40.2236 73.5402 40.5216 73.5052 40.7145C73.4876 40.9074 73.4087 41.1353 73.2685 41.3983C73.1457 41.6438 72.9178 41.8192 72.5846 41.9244C72.2515 42.0296 71.8131 42.0822 71.2695 42.0822C70.726 42.0822 70.2876 42.0296 69.9545 41.9244C69.6389 41.8192 69.4109 41.6438 69.2706 41.3983C69.1479 41.1353 69.069 40.9074 69.0339 40.7145C69.0164 40.5041 69.0076 40.1973 69.0076 39.794V26.5907H63.9578C63.3967 26.5907 62.9846 26.5293 62.7216 26.4066C62.4586 26.2663 62.2832 26.0559 62.1956 25.7753C62.1079 25.4948 62.0641 25.1266 62.0641 24.6707C62.0641 24.2148 62.1079 23.8553 62.1956 23.5923C62.2832 23.3118 62.4323 23.1189 62.6427 23.0137C62.9583 22.8559 63.4054 22.777 63.9841 22.777Z" fill="#404040"/>
<path d="M81.9596 25.1178C81.9596 24.7145 81.9684 24.4164 81.9859 24.2236C82.021 24.0131 82.1087 23.7764 82.2489 23.5134C82.4944 23.04 83.1782 22.8033 84.3004 22.8033C85.5278 22.8033 86.2555 23.1277 86.4835 23.7764C86.5711 24.0745 86.615 24.5304 86.615 25.1441V39.7677C86.615 40.1885 86.5974 40.4953 86.5624 40.6882C86.5448 40.8811 86.4659 41.109 86.3256 41.372C86.0802 41.8455 85.3963 42.0822 84.2741 42.0822C83.0467 42.0822 82.3278 41.749 82.1174 41.0827C82.0122 40.8022 81.9596 40.3551 81.9596 39.7414V25.1178Z" fill="#404040"/>
<path d="M109.204 23.5397C109.344 23.8027 109.423 24.0394 109.44 24.2499C109.475 24.4603 109.493 24.7671 109.493 25.1704V39.7677C109.493 40.9775 109.16 41.6877 108.493 41.8981C108.16 42.0033 107.739 42.0559 107.231 42.0559C106.722 42.0559 106.319 42.012 106.021 41.9244C105.723 41.8367 105.495 41.7315 105.337 41.6088C105.179 41.486 105.057 41.3107 104.969 41.0827C104.881 40.7846 104.837 40.3288 104.837 39.7151V30.9041C104.399 31.4477 103.759 32.3156 102.917 33.5079C102.076 34.6827 101.541 35.4192 101.313 35.7173C101.085 36.0153 100.927 36.2257 100.84 36.3485C100.752 36.4537 100.533 36.6115 100.182 36.8219C99.849 37.0148 99.4808 37.1112 99.0775 37.1112C98.6917 37.1112 98.3323 37.0236 97.9991 36.8482C97.6835 36.6553 97.4556 36.4712 97.3153 36.2959L97.1049 36.0066C96.7542 35.5682 96.0616 34.6389 95.0271 33.2186C93.9926 31.7808 93.4315 31.0093 93.3438 30.9041V39.7677C93.3438 40.1709 93.3263 40.4778 93.2912 40.6882C93.2737 40.8811 93.1948 41.1003 93.0545 41.3457C92.7915 41.8192 92.1076 42.0559 91.003 42.0559C89.9334 42.0559 89.2671 41.8192 89.0041 41.3457C88.8638 41.1003 88.7761 40.8723 88.7411 40.6619C88.7235 40.4515 88.7148 40.1359 88.7148 39.7151V25.1178C88.7148 24.7145 88.7235 24.4164 88.7411 24.2236C88.7761 24.0131 88.8638 23.7764 89.0041 23.5134C89.2671 23.0575 89.9509 22.8296 91.0556 22.8296C91.529 22.8296 91.9323 22.8909 92.2654 23.0137C92.6161 23.1189 92.8441 23.2329 92.9493 23.3556L93.1071 23.5134L99.0775 31.3512C102.058 27.406 104.048 24.8022 105.048 23.5397C105.346 23.0663 106.047 22.8296 107.152 22.8296C108.274 22.8296 108.958 23.0663 109.204 23.5397Z" fill="#404040"/>
<path d="M116.255 37.4268H124.356C124.759 37.4268 125.058 37.4444 125.25 37.4794C125.461 37.497 125.698 37.5759 125.961 37.7162C126.434 37.9616 126.671 38.6455 126.671 39.7677C126.671 40.9951 126.346 41.714 125.698 41.9244C125.399 42.0296 124.944 42.0822 124.33 42.0822H113.915C112.687 42.0822 111.968 41.749 111.758 41.0827C111.653 40.8022 111.6 40.3551 111.6 39.7414V25.1178C111.6 24.2236 111.767 23.6186 112.1 23.303C112.433 22.9699 113.064 22.8033 113.993 22.8033H124.356C124.759 22.8033 125.058 22.8208 125.25 22.8559C125.461 22.8734 125.698 22.9523 125.961 23.0926C126.434 23.3381 126.671 24.0219 126.671 25.1441C126.671 26.3715 126.346 27.0904 125.698 27.3008C125.399 27.406 124.944 27.4586 124.33 27.4586H116.255V30.1151H121.463C121.866 30.1151 122.164 30.1326 122.357 30.1677C122.568 30.1852 122.804 30.2641 123.067 30.4044C123.541 30.6499 123.778 31.3337 123.778 32.4559C123.778 33.6833 123.444 34.4022 122.778 34.6126C122.48 34.7178 122.024 34.7704 121.41 34.7704H116.255V37.4268Z" fill="#404040"/>
<circle cx="19.726" cy="28.274" r="16.726" stroke="#404040" stroke-width="6"/>
<rect x="17.7534" y="3.94522" width="3.94521" height="6.57534" fill="#404040"/>
<rect x="13.1507" width="13.1507" height="5.26027" rx="2.63014" fill="#404040"/>
<path d="M19 28.8649L34.0431 13.8218" stroke="#ECEFF1" stroke-width="3" stroke-linecap="round"/>
<path d="M19 28.85L13.818 23.668" stroke="#ECEFF1" stroke-width="3" stroke-linecap="round"/>
</svg>
